<svg xmlns="http://www.w3.org/2000/svg" xmlns:xlink="http://www.w3.org/1999/xlink" xmlns:fi="http://pattern.flaticon.com/" x="0" y="0" width="2167" height="1080" viewBox="0 0 2167 1080"><rect x="0px" y="0px" width="100%" height="100%" opacity="1" fill="#000000"/><defs><g transform="matrix(0.16304348409175873 0 0 0.16304348409175873 -1 76)" id="L1_392"><path d="M360,24v48H136V8h208C352.8,8,360,15.2,360,24z" fill="#000000"/><g><path d="M344,0H24C10.768,0,0,10.768,0,24v320c0,13.232,10.768,24,24,24h320c13.232,0,24-10.768,24-24V24   C368,10.768,357.232,0,344,0z M80,16h48v48H80V16z M16,24c0-4.408,3.584-8,8-8h40v48H16V24z M352,344c0,4.408-3.584,8-8,8H24   c-4.416,0-8-3.592-8-8V80h336V344z M352,64H144V16h200c4.416,0,8,3.592,8,8V64z" fill="#006aff"/><path d="M249.928,269.208c1.576,1.84,3.824,2.792,6.072,2.792c1.84,0,3.696-0.632,5.2-1.928l56-48   c1.776-1.52,2.8-3.736,2.8-6.072s-1.024-4.552-2.8-6.072l-56-48c-3.344-2.864-8.408-2.488-11.272,0.864   c-2.88,3.352-2.496,8.408,0.864,11.28L299.712,216L250.8,257.928C247.44,260.8,247.048,265.848,249.928,269.208z" fill="#006aff"/><path d="M106.8,270.072c1.504,1.296,3.36,1.928,5.2,1.928c2.248,0,4.496-0.952,6.072-2.792   c2.88-3.352,2.496-8.408-0.864-11.28L68.288,216l48.912-41.928c3.36-2.872,3.752-7.928,0.864-11.28   c-2.864-3.352-7.92-3.736-11.272-0.864l-56,48C49.024,211.448,48,213.664,48,216s1.024,4.552,2.8,6.072L106.8,270.072z" fill="#006aff"/><path d="M157.184,287.496c0.936,0.336,1.88,0.504,2.816,0.504c3.232,0,6.288-1.984,7.496-5.192l48-128   c1.544-4.136-0.544-8.744-4.68-10.304c-4.144-1.536-8.752,0.536-10.304,4.68l-48,128   C150.96,281.328,153.056,285.936,157.184,287.496z" fill="#006aff"/></g></g><g transform="matrix(0.1502236469741027 0.01365669521385943 -0.01365669521385943 0.1502236469741027 277.87168194899886 232.8460181102986)" id="L1_395"><path d="M296,56v272c0,17.68-14.32,32-32,32c-42.56,0-117.44,0-160,0c-17.68,0-32-14.32-32-32  c0-62.08,0-198.96,0-272H296z M192,304c0-4.4-3.6-8-8-8s-8,3.6-8,8s3.6,8,8,8S192,308.4,192,304z" fill="#01061f"/><g><path d="M184,288c-8.824,0-16,7.176-16,16s7.176,16,16,16s16-7.176,16-16S192.824,288,184,288z    M184.008,304.024C184,304.016,184,304.008,184,304h8L184.008,304.024z" fill="#007bff"/><path d="M114.344,189.656c1.56,1.56,3.608,2.344,5.656,2.344s4.096-0.784,5.656-2.344l32-32   c3.128-3.128,3.128-8.184,0-11.312l-32-32c-3.128-3.128-8.184-3.128-11.312,0s-3.128,8.184,0,11.312L140.688,152l-26.344,26.344   C111.216,181.472,111.216,186.528,114.344,189.656z" fill="#007bff"/><path d="M184,192h64c4.416,0,8-3.584,8-8s-3.584-8-8-8h-64c-4.416,0-8,3.584-8,8   C176,188.416,179.584,192,184,192z" fill="#007bff"/><path d="M200,144h48c4.416,0,8-3.584,8-8s-3.584-8-8-8h-48c-4.416,0-8,3.584-8,8S195.584,144,200,144z" fill="#007bff"/><path d="M120,240h128c4.416,0,8-3.584,8-8s-3.584-8-8-8H120c-4.416,0-8,3.584-8,8S115.584,240,120,240z" fill="#007bff"/><path d="M104,368h160c22.056,0,40-17.944,40-40V40c0-22.056-17.944-40-40-40H104C81.944,0,64,17.944,64,40   v288C64,350.056,81.944,368,104,368z M80,40c0-13.232,10.768-24,24-24h160c13.232,0,24,10.768,24,24v8H80V40z M80,64h208v264   c0,13.232-10.768,24-24,24H104c-13.232,0-24-10.768-24-24V64z" fill="#007bff"/></g></g><g transform="matrix(0.15756183204716948 -0.04611565781358548 0.04611565781358548 0.15756183204716948 94.5233429385047 247.49390501390414)" id="L1_396"><path d="M120,120v128h128V120H120z M200,200h-32v-32h32V200z" fill="#000000"/><g><path d="M168,208h32c4.424,0,8-3.584,8-8v-32c0-4.416-3.576-8-8-8h-32c-4.416,0-8,3.584-8,8v32   C160,204.416,163.584,208,168,208z M176,176h16v16h-16V176z" fill="#00bbff"/><path d="M360,176H256v-32h40c4.424,0,8-3.584,8-8v-32c0-4.416-3.576-8-8-8s-8,3.584-8,8v24h-32v-8   c0-4.416-3.576-8-8-8h-8V16h40c4.424,0,8-3.584,8-8s-3.576-8-8-8h-48c-4.424,0-8,3.584-8,8v104h-32V8c0-4.416-3.584-8-8-8   s-8,3.584-8,8v104h-32V40c0-4.416-3.584-8-8-8s-8,3.584-8,8v72h-8c-4.416,0-8,3.584-8,8v8H40c-4.416,0-8,3.584-8,8s3.584,8,8,8h72   v32H8c-4.416,0-8,3.584-8,8c0,4.416,3.584,8,8,8h104v32H72c-4.416,0-8,3.584-8,8v32c0,4.416,3.584,8,8,8s8-3.584,8-8v-24h32v8   c0,4.416,3.584,8,8,8h8v96H88c-4.416,0-8,3.584-8,8s3.584,8,8,8h48c4.416,0,8-3.584,8-8V256h32v104c0,4.416,3.584,8,8,8   c4.416,0,8-3.584,8-8V256h32v72c0,4.416,3.576,8,8,8s8-3.584,8-8v-72h8c4.424,0,8-3.584,8-8v-8h72c4.424,0,8-3.584,8-8   s-3.576-8-8-8h-72v-32h104c4.424,0,8-3.584,8-8S364.424,176,360,176z M240,240H128V128h112V240z" fill="#00bbff"/></g></g><g transform="matrix(0.126503624071068 -0.019974256593395436 0.019974256593395436 0.126503624071068 159.04907347538602 89.39583638116808)" id="L1_402"><path d="M184.002,303.867 184.002,311.867 136.002,311.867 136.002,87.867 184.002,111.867z" fill="#10205e"/><g><path d="M239.874,86.939c-0.088-0.776-0.296-1.52-0.608-2.232c-0.056-0.136-0.048-0.28-0.112-0.416   c-0.04-0.072-0.104-0.112-0.144-0.184c-0.064-0.112-0.088-0.24-0.152-0.352l-28.8-48l-19.2-32c-2.888-4.824-10.832-4.824-13.72,0   l-19.2,32l-28.8,48c-0.064,0.112-0.088,0.24-0.152,0.352c-0.04,0.072-0.112,0.112-0.144,0.184c-0.064,0.136-0.056,0.28-0.112,0.416   c-0.312,0.712-0.512,1.456-0.608,2.232c-0.024,0.216-0.08,0.416-0.088,0.632c0.008,0.096-0.032,0.192-0.032,0.296v256   c0,13.232,10.768,24,24,24h64c13.232,0,24-10.768,24-24v-256c0-0.104-0.04-0.2-0.04-0.296   C239.954,87.355,239.898,87.155,239.874,86.939z M184.002,23.419l5.072,8.448h-10.136L184.002,23.419z M169.338,47.867h29.336   l22.024,36.704l-36.696,18.352l-36.696-18.344L169.338,47.867z M144.002,100.811l32,16v187.056h-32V100.811z M224.002,343.867   c0,4.408-3.592,8-8,8h-64c-4.408,0-8-3.592-8-8v-24h80V343.867z M224.002,303.867h-32V116.811l32-16V303.867z" fill="#039eff"/><path d="M96.002,47.867h-40c-13.232,0-24,10.768-24,24v76.688L2.346,178.211   c-3.128,3.128-3.128,8.184,0,11.312l29.656,29.656v76.688c0,13.232,10.768,24,24,24h32c4.416,0,8-3.584,8-8s-3.584-8-8-8h-32   c-4.408,0-8-3.592-8-8v-80c0-2.12-0.84-4.16-2.344-5.656l-26.344-26.344l26.344-26.344c1.504-1.496,2.344-3.536,2.344-5.656v-80   c0-4.408,3.592-8,8-8h40c4.416,0,8-3.584,8-8S100.418,47.867,96.002,47.867z" fill="#039eff"/><path d="M336.002,148.555V71.867c0-13.232-10.768-24-24-24h-40c-4.416,0-8,3.584-8,8s3.584,8,8,8h40   c4.408,0,8,3.592,8,8v80c0,2.12,0.84,4.16,2.344,5.656l26.344,26.344l-26.344,26.344c-1.504,1.496-2.344,3.536-2.344,5.656v80   c0,4.408-3.592,8-8,8h-32c-4.416,0-8,3.584-8,8s3.584,8,8,8h32c13.232,0,24-10.768,24-24v-76.688l29.656-29.656   c3.128-3.128,3.128-8.184,0-11.312L336.002,148.555z" fill="#039eff"/></g></g></defs><g fi:class="KUsePattern"><pattern id="pattern_L1_392" width="350" height="350" patternUnits="userSpaceOnUse"><use xlink:href="#L1_392" x="-350" y="-350"/><use xlink:href="#L1_392" x="0" y="-350"/><use xlink:href="#L1_392" x="350" y="-350"/><use xlink:href="#L1_392" x="-350" y="0"/><use xlink:href="#L1_392" x="0" y="0"/><use xlink:href="#L1_392" x="350" y="0"/><use xlink:href="#L1_392" x="-350" y="350"/><use xlink:href="#L1_392" x="0" y="350"/><use xlink:href="#L1_392" x="350" y="350"/></pattern><rect x="0" y="0" width="100%" height="100%" fill="url(#pattern_L1_392)"/></g><g fi:class="KUsePattern"><pattern id="pattern_L1_395" width="350" height="350" patternUnits="userSpaceOnUse"><use xlink:href="#L1_395" x="-350" y="-350"/><use xlink:href="#L1_395" x="0" y="-350"/><use xlink:href="#L1_395" x="350" y="-350"/><use xlink:href="#L1_395" x="-350" y="0"/><use xlink:href="#L1_395" x="0" y="0"/><use xlink:href="#L1_395" x="350" y="0"/><use xlink:href="#L1_395" x="-350" y="350"/><use xlink:href="#L1_395" x="0" y="350"/><use xlink:href="#L1_395" x="350" y="350"/></pattern><rect x="0" y="0" width="100%" height="100%" fill="url(#pattern_L1_395)"/></g><g fi:class="KUsePattern"><pattern id="pattern_L1_396" width="350" height="350" patternUnits="userSpaceOnUse"><use xlink:href="#L1_396" x="-350" y="-350"/><use xlink:href="#L1_396" x="0" y="-350"/><use xlink:href="#L1_396" x="350" y="-350"/><use xlink:href="#L1_396" x="-350" y="0"/><use xlink:href="#L1_396" x="0" y="0"/><use xlink:href="#L1_396" x="350" y="0"/><use xlink:href="#L1_396" x="-350" y="350"/><use xlink:href="#L1_396" x="0" y="350"/><use xlink:href="#L1_396" x="350" y="350"/></pattern><rect x="0" y="0" width="100%" height="100%" fill="url(#pattern_L1_396)"/></g><g fi:class="KUsePattern"><pattern id="pattern_L1_402" width="350" height="350" patternUnits="userSpaceOnUse"><use xlink:href="#L1_402" x="-350" y="-350"/><use xlink:href="#L1_402" x="0" y="-350"/><use xlink:href="#L1_402" x="350" y="-350"/><use xlink:href="#L1_402" x="-350" y="0"/><use xlink:href="#L1_402" x="0" y="0"/><use xlink:href="#L1_402" x="350" y="0"/><use xlink:href="#L1_402" x="-350" y="350"/><use xlink:href="#L1_402" x="0" y="350"/><use xlink:href="#L1_402" x="350" y="350"/></pattern><rect x="0" y="0" width="100%" height="100%" fill="url(#pattern_L1_402)"/></g></svg>